<svg width="16" height="16" viewBox="0 0 16 16" fill="none" xmlns="http://www.w3.org/2000/svg">
<path d="M8 2H3.33333C2.97971 2 2.64057 2.14048 2.39052 2.39052C2.14048 2.64057 2 2.97971 2 3.33333V12.6667C2 13.0203 2.14048 13.3594 2.39052 13.6095C2.64057 13.8595 2.97971 14 3.33333 14H12.6667C13.0203 14 13.3594 13.8595 13.6095 13.6095C13.8595 13.3594 14 13.0203 14 12.6667V8" stroke="black" stroke-linecap="round" stroke-linejoin="round"/>
<path d="M12.25 1.75C12.5152 1.48478 12.8749 1.33578 13.25 1.33578C13.6251 1.33578 13.9848 1.48478 14.25 1.75C14.5152 2.01521 14.6642 2.37493 14.6642 2.75C14.6642 3.12507 14.5152 3.48478 14.25 3.75L8.24136 9.75933C8.08305 9.9175 7.88749 10.0333 7.67269 10.096L5.75735 10.656C5.69999 10.6727 5.63918 10.6737 5.58129 10.6589C5.52341 10.6441 5.47057 10.614 5.42832 10.5717C5.38607 10.5294 5.35595 10.4766 5.34112 10.4187C5.32629 10.3608 5.32729 10.3 5.34402 10.2427L5.90402 8.32733C5.96704 8.1127 6.08304 7.91737 6.24136 7.75933L12.25 1.75Z" stroke="black" stroke-linecap="round" stroke-linejoin="round"/>
</svg>
