<svg width="17" height="16" viewBox="0 0 17 16" fill="none" xmlns="http://www.w3.org/2000/svg">
<path d="M8.16667 10H5.16667C4.45942 10 3.78115 10.281 3.28105 10.781C2.78095 11.2811 2.5 11.9594 2.5 12.6667V14" stroke="black" stroke-linecap="round" stroke-linejoin="round"/>
<path d="M14.752 11.084C15.0176 10.8184 15.1668 10.4582 15.1668 10.0827C15.1668 9.70709 15.0176 9.3469 14.752 9.08133C14.4865 8.81576 14.1263 8.66656 13.7507 8.66656C13.3751 8.66656 13.0149 8.81576 12.7494 9.08133L10.076 11.756C9.91752 11.9144 9.80151 12.1102 9.73869 12.3253L9.18069 14.2387C9.16396 14.296 9.16296 14.3568 9.17779 14.4147C9.19262 14.4726 9.22274 14.5254 9.26499 14.5677C9.30724 14.61 9.36008 14.6401 9.41796 14.6549C9.47585 14.6697 9.53666 14.6687 9.59402 14.652L11.5074 14.094C11.7225 14.0312 11.9183 13.9152 12.0767 13.7567L14.752 11.084Z" stroke="black" stroke-linecap="round" stroke-linejoin="round"/>
<path d="M7.16667 7.33333C8.63943 7.33333 9.83333 6.13943 9.83333 4.66667C9.83333 3.19391 8.63943 2 7.16667 2C5.69391 2 4.5 3.19391 4.5 4.66667C4.5 6.13943 5.69391 7.33333 7.16667 7.33333Z" stroke="black" stroke-linecap="round" stroke-linejoin="round"/>
</svg>
