<svg width="43" height="16" viewBox="0 0 43 16" fill="none" xmlns="http://www.w3.org/2000/svg">
<path d="M19.5 2H16.1667C15.7985 2 15.5 2.29848 15.5 2.66667V6C15.5 6.36819 15.7985 6.66667 16.1667 6.66667H19.5C19.8682 6.66667 20.1667 6.36819 20.1667 6V2.66667C20.1667 2.29848 19.8682 2 19.5 2Z" stroke="#FF6D00" stroke-linecap="round" stroke-linejoin="round"/>
<path d="M26.8333 2H23.5C23.1318 2 22.8333 2.29848 22.8333 2.66667V6C22.8333 6.36819 23.1318 6.66667 23.5 6.66667H26.8333C27.2015 6.66667 27.5 6.36819 27.5 6V2.66667C27.5 2.29848 27.2015 2 26.8333 2Z" stroke="#FF6D00" stroke-linecap="round" stroke-linejoin="round"/>
<path d="M26.8333 9.33333H23.5C23.1318 9.33333 22.8333 9.63181 22.8333 10V13.3333C22.8333 13.7015 23.1318 14 23.5 14H26.8333C27.2015 14 27.5 13.7015 27.5 13.3333V10C27.5 9.63181 27.2015 9.33333 26.8333 9.33333Z" stroke="#FF6D00" stroke-linecap="round" stroke-linejoin="round"/>
<path d="M19.5 9.33333H16.1667C15.7985 9.33333 15.5 9.63181 15.5 10V13.3333C15.5 13.7015 15.7985 14 16.1667 14H19.5C19.8682 14 20.1667 13.7015 20.1667 13.3333V10C20.1667 9.63181 19.8682 9.33333 19.5 9.33333Z" stroke="#FF6D00" stroke-linecap="round" stroke-linejoin="round"/>
</svg>
