<svg width="25" height="24" viewBox="0 0 25 24" fill="none" xmlns="http://www.w3.org/2000/svg">
<path d="M20.75 8.511C21.634 8.795 22.25 9.639 22.25 10.608V14.894C22.25 16.03 21.403 16.994 20.27 17.087C19.93 17.114 19.59 17.139 19.25 17.159V20.25L16.25 17.25C14.896 17.25 13.556 17.195 12.23 17.087C11.9413 17.0637 11.6605 16.9813 11.405 16.845M20.75 8.511C20.5955 8.46127 20.4358 8.42939 20.274 8.416C17.5959 8.19368 14.9041 8.19368 12.226 8.416C11.095 8.51 10.25 9.473 10.25 10.608V14.894C10.25 15.731 10.71 16.474 11.405 16.845M20.75 8.511V6.637C20.75 5.016 19.598 3.611 17.99 3.402C15.9208 3.13379 13.8365 2.99951 11.75 3C9.635 3 7.552 3.137 5.51 3.402C3.902 3.611 2.75 5.016 2.75 6.637V12.863C2.75 14.484 3.902 15.889 5.51 16.098C6.087 16.173 6.667 16.238 7.25 16.292V21L11.405 16.845" stroke="black" stroke-width="1.5" stroke-linecap="round" stroke-linejoin="round"/>
</svg>
