<svg width="25" height="25" viewBox="0 0 25 25" fill="none" xmlns="http://www.w3.org/2000/svg">
<g clip-path="url(#clip0_2_730)">
<path d="M22.292 19.2036C21.929 20.042 21.4994 20.8139 21.0016 21.5235C20.3231 22.4909 19.7676 23.1605 19.3395 23.5323C18.6758 24.1427 17.9647 24.4552 17.2032 24.473C16.6566 24.473 15.9973 24.3175 15.23 24.0019C14.4601 23.6879 13.7525 23.5323 13.1056 23.5323C12.4271 23.5323 11.6994 23.6879 10.9211 24.0019C10.1415 24.3175 9.51355 24.4819 9.03342 24.4982C8.30322 24.5293 7.57539 24.2078 6.8489 23.5323C6.38521 23.1279 5.80523 22.4346 5.11043 21.4524C4.36498 20.4035 3.75211 19.1873 3.27198 17.8006C2.75777 16.3029 2.5 14.8526 2.5 13.4485C2.5 11.8401 2.84754 10.4529 3.54367 9.29037C4.09076 8.35662 4.81859 7.62005 5.72953 7.07932C6.64046 6.5386 7.62473 6.26305 8.68469 6.24542C9.26467 6.24542 10.0252 6.42483 10.9704 6.77741C11.9129 7.13117 12.5181 7.31058 12.7834 7.31058C12.9817 7.31058 13.654 7.1008 14.7937 6.68259C15.8714 6.29475 16.781 6.13417 17.5262 6.19742C19.5454 6.36038 21.0624 7.15636 22.0712 8.59039C20.2654 9.68458 19.3721 11.2171 19.3898 13.1831C19.4061 14.7145 19.9617 15.9888 21.0535 17.0007C21.5483 17.4703 22.1009 17.8332 22.7156 18.091C22.5823 18.4776 22.4416 18.848 22.292 19.2036ZM17.661 0.980396C17.661 2.18067 17.2225 3.30136 16.3484 4.33866C15.2937 5.57181 14.0179 6.28438 12.6343 6.17194C12.6167 6.02795 12.6065 5.8764 12.6065 5.71714C12.6065 4.56488 13.1081 3.33173 13.9989 2.32347C14.4436 1.81296 15.0092 1.38849 15.6951 1.04987C16.3796 0.716314 17.0269 0.531848 17.6358 0.500259C17.6536 0.660717 17.661 0.821185 17.661 0.980381V0.980396Z" fill="black"/>
</g>
<defs>
<clipPath id="clip0_2_730">
<rect width="24" height="24" fill="white" transform="translate(0.5 0.5)"/>
</clipPath>
</defs>
</svg>
