<svg width="20" height="21" viewBox="0 0 20 21" fill="none" xmlns="http://www.w3.org/2000/svg">
<path d="M12.857 15.582C14.7202 15.3614 16.5509 14.9217 18.311 14.272C16.8204 12.6208 15.9967 10.4745 16 8.25V7.5C16 5.9087 15.3679 4.38258 14.2426 3.25736C13.1174 2.13214 11.5913 1.5 10 1.5C8.4087 1.5 6.88258 2.13214 5.75736 3.25736C4.63215 4.38258 4 5.9087 4 7.5V8.25C4.00302 10.4746 3.17899 12.621 1.688 14.272C3.421 14.912 5.248 15.357 7.143 15.582M12.857 15.582C10.959 15.8071 9.04102 15.8071 7.143 15.582M12.857 15.582C13.0011 16.0319 13.0369 16.5094 12.9616 16.9757C12.8862 17.442 12.7018 17.884 12.4234 18.2656C12.1449 18.6472 11.7803 18.9576 11.3592 19.1716C10.9381 19.3856 10.4724 19.4972 10 19.4972C9.52763 19.4972 9.06193 19.3856 8.64081 19.1716C8.2197 18.9576 7.85508 18.6472 7.57662 18.2656C7.29817 17.884 7.11377 17.442 7.03842 16.9757C6.96307 16.5094 6.9989 16.0319 7.143 15.582" stroke="black" stroke-width="1.5" stroke-linecap="round" stroke-linejoin="round"/>
</svg>
