<svg width="20" height="19" viewBox="0 0 20 19" fill="none" xmlns="http://www.w3.org/2000/svg">
<path d="M6.625 9.09863C6.625 9.19809 6.58549 9.29347 6.51517 9.3638C6.44484 9.43412 6.34946 9.47363 6.25 9.47363C6.15054 9.47363 6.05516 9.43412 5.98484 9.3638C5.91451 9.29347 5.875 9.19809 5.875 9.09863C5.875 8.99918 5.91451 8.90379 5.98484 8.83347C6.05516 8.76314 6.15054 8.72363 6.25 8.72363C6.34946 8.72363 6.44484 8.76314 6.51517 8.83347C6.58549 8.90379 6.625 8.99918 6.625 9.09863ZM6.625 9.09863H6.25M10.375 9.09863C10.375 9.19809 10.3355 9.29347 10.2652 9.3638C10.1948 9.43412 10.0995 9.47363 10 9.47363C9.90054 9.47363 9.80516 9.43412 9.73483 9.3638C9.66451 9.29347 9.625 9.19809 9.625 9.09863C9.625 8.99918 9.66451 8.90379 9.73483 8.83347C9.80516 8.76314 9.90054 8.72363 10 8.72363C10.0995 8.72363 10.1948 8.76314 10.2652 8.83347C10.3355 8.90379 10.375 8.99918 10.375 9.09863ZM10.375 9.09863H10M14.125 9.09863C14.125 9.19809 14.0855 9.29347 14.0152 9.3638C13.9448 9.43412 13.8495 9.47363 13.75 9.47363C13.6505 9.47363 13.5552 9.43412 13.4848 9.3638C13.4145 9.29347 13.375 9.19809 13.375 9.09863C13.375 8.99918 13.4145 8.90379 13.4848 8.83347C13.5552 8.76314 13.6505 8.72363 13.75 8.72363C13.8495 8.72363 13.9448 8.76314 14.0152 8.83347C14.0855 8.90379 14.125 8.99918 14.125 9.09863ZM14.125 9.09863H13.75M19 9.09863C19 13.6546 14.97 17.3486 10 17.3486C9.13718 17.3497 8.27804 17.2364 7.445 17.0116C6.27076 17.8375 4.83833 18.2127 3.41 18.0686C3.25119 18.0533 3.09307 18.0316 2.936 18.0036C3.42887 17.4228 3.76547 16.7258 3.914 15.9786C4.004 15.5216 3.781 15.0776 3.447 14.7526C1.93 13.2766 1 11.2876 1 9.09863C1 4.54263 5.03 0.848633 10 0.848633C14.97 0.848633 19 4.54263 19 9.09863Z" stroke="black" stroke-width="1.5" stroke-linecap="round" stroke-linejoin="round"/>
</svg>
