<svg width="14" height="11" viewBox="0 0 14 11" fill="none" xmlns="http://www.w3.org/2000/svg">
<path d="M13.5 2V9C13.5 9.39782 13.342 9.77936 13.0607 10.0607C12.7794 10.342 12.3978 10.5 12 10.5H2C1.60218 10.5 1.22064 10.342 0.93934 10.0607C0.658035 9.77936 0.5 9.39782 0.5 9V2M13.5 2C13.5 1.60218 13.342 1.22064 13.0607 0.93934C12.7794 0.658035 12.3978 0.5 12 0.5H2C1.60218 0.5 1.22064 0.658035 0.93934 0.93934C0.658035 1.22064 0.5 1.60218 0.5 2M13.5 2V2.162C13.5 2.4181 13.4345 2.66994 13.3096 2.89353C13.1848 3.11712 13.0047 3.30502 12.7867 3.43933L7.78667 6.516C7.55014 6.66169 7.2778 6.73883 7 6.73883C6.7222 6.73883 6.44986 6.66169 6.21333 6.516L1.21333 3.44C0.995281 3.30569 0.815246 3.11779 0.690379 2.8942C0.565512 2.6706 0.499972 2.41876 0.5 2.16267V2" stroke="black" stroke-opacity="0.5" stroke-linecap="round" stroke-linejoin="round"/>
</svg>
