<svg width="16" height="17" viewBox="0 0 16 17" fill="none" xmlns="http://www.w3.org/2000/svg">
<path d="M2.65331 5.982C2.02961 6.71812 1.56518 7.57547 1.28931 8.5C2.15064 11.392 4.82931 13.5 7.99997 13.5C8.66197 13.5 9.30197 13.408 9.90864 13.2367M4.15197 4.652C5.29374 3.89857 6.63203 3.49792 7.99997 3.5C11.1706 3.5 13.8486 5.608 14.71 8.49867C14.2379 10.0782 13.2247 11.4411 11.848 12.348M4.15197 4.652L1.99997 2.5M4.15197 4.652L6.58531 7.08533M11.848 12.348L14 14.5M11.848 12.348L9.41464 9.91467C9.60037 9.72893 9.7477 9.50844 9.84822 9.26577C9.94874 9.02309 10.0005 8.763 10.0005 8.50033C10.0005 8.23767 9.94874 7.97757 9.84822 7.7349C9.7477 7.49223 9.60037 7.27173 9.41464 7.086C9.22891 6.90027 9.00841 6.75294 8.76574 6.65242C8.52307 6.5519 8.26297 6.50016 8.00031 6.50016C7.73764 6.50016 7.47755 6.5519 7.23487 6.65242C6.9922 6.75294 6.77171 6.90027 6.58597 7.086M9.41397 9.914L6.58664 7.08667" stroke="black" stroke-opacity="0.75" stroke-linecap="round" stroke-linejoin="round"/>
</svg>
