<svg width="16" height="16" viewBox="0 0 16 16" fill="none" xmlns="http://www.w3.org/2000/svg">
<path d="M1.03451 8.21467C0.988498 8.07639 0.988498 7.92694 1.03451 7.78867C1.95917 5.00667 4.58384 3 7.67717 3C10.7692 3 13.3925 5.00467 14.3192 7.78533C14.3658 7.92333 14.3658 8.07267 14.3192 8.21133C13.3952 10.9933 10.7705 13 7.67717 13C4.58517 13 1.96117 10.9953 1.03451 8.21467Z" stroke="black" stroke-linecap="round" stroke-linejoin="round"/>
<path d="M10 8C10 8.53043 9.78929 9.03914 9.41421 9.41421C9.03914 9.78929 8.53043 10 8 10C7.46957 10 6.96086 9.78929 6.58579 9.41421C6.21071 9.03914 6 8.53043 6 8C6 7.46957 6.21071 6.96086 6.58579 6.58579C6.96086 6.21071 7.46957 6 8 6C8.53043 6 9.03914 6.21071 9.41421 6.58579C9.78929 6.96086 10 7.46957 10 8Z" stroke="black" stroke-linecap="round" stroke-linejoin="round"/>
</svg>
