<svg width="25" height="25" viewBox="0 0 25 25" fill="none" xmlns="http://www.w3.org/2000/svg">
<path d="M24.5 12.5C24.5 5.87264 19.1274 0.5 12.5 0.5C5.87264 0.5 0.5 5.87264 0.5 12.5C0.5 18.1275 4.37456 22.8498 9.60128 24.1467V16.1672H7.12688V12.5H9.60128V10.9198C9.60128 6.83552 11.4498 4.9424 15.4597 4.9424C16.22 4.9424 17.5318 5.09168 18.0685 5.24048V8.56448C17.7853 8.53472 17.2933 8.51984 16.6822 8.51984C14.7147 8.51984 13.9544 9.26528 13.9544 11.203V12.5H17.8741L17.2006 16.1672H13.9544V24.4122C19.8963 23.6946 24.5005 18.6354 24.5005 12.5H24.5Z" fill="#0866FF"/>
</svg>
