<svg width="25" height="25" viewBox="0 0 25 25" fill="none" xmlns="http://www.w3.org/2000/svg">
<path d="M12.7449 10.3181V14.9654H19.3349C19.0455 16.46 18.1771 17.7255 16.8747 18.5764L20.8488 21.5982C23.1642 19.5037 24.5 16.4273 24.5 12.7728C24.5 11.9219 24.4221 11.1037 24.2774 10.3183L12.7449 10.3181Z" fill="#4285F4"/>
<path d="M5.8824 14.784L4.9861 15.4564L1.81348 17.8782C3.82833 21.7945 7.95794 24.5 12.7446 24.5C16.0507 24.5 18.8225 23.4309 20.8485 21.5982L16.8745 18.5764C15.7835 19.2964 14.392 19.7328 12.7446 19.7328C9.56091 19.7328 6.85595 17.6273 5.88741 14.791L5.8824 14.784Z" fill="#34A853"/>
<path d="M1.81346 7.12183C0.978619 8.73631 0.5 10.5581 0.5 12.4999C0.5 14.4417 0.978619 16.2636 1.81346 17.878C1.81346 17.8889 5.88779 14.7799 5.88779 14.7799C5.64289 14.0599 5.49813 13.2963 5.49813 12.4998C5.49813 11.7033 5.64289 10.9398 5.88779 10.2198L1.81346 7.12183Z" fill="#FBBC05"/>
<path d="M12.7448 5.27818C14.5482 5.27818 16.1512 5.88907 17.4314 7.06727L20.9378 3.63095C18.8117 1.68917 16.0511 0.5 12.7448 0.5C7.95819 0.5 3.82833 3.19454 1.81348 7.12183L5.88768 10.22C6.85609 7.38362 9.56116 5.27818 12.7448 5.27818Z" fill="#EA4335"/>
</svg>
