<svg width="24" height="24" viewBox="0 0 24 24" fill="none" xmlns="http://www.w3.org/2000/svg">
<path d="M11.645 20.91L11.638 20.907L11.616 20.895C11.4873 20.8242 11.3596 20.7515 11.233 20.677C9.71081 19.7725 8.28827 18.7099 6.989 17.507C4.688 15.36 2.25 12.174 2.25 8.24999C2.25 5.32199 4.714 2.99999 7.688 2.99999C8.51475 2.99595 9.33178 3.17834 10.0783 3.5336C10.8249 3.88886 11.4817 4.40786 12 5.05199C12.5184 4.40773 13.1754 3.88865 13.9221 3.53338C14.6689 3.17811 15.4861 2.99579 16.313 2.99999C19.286 2.99999 21.75 5.32199 21.75 8.24999C21.75 12.175 19.312 15.361 17.011 17.506C15.7117 18.709 14.2892 19.7715 12.767 20.676C12.6404 20.7508 12.5127 20.8238 12.384 20.895L12.362 20.907L12.355 20.911L12.352 20.912C12.2436 20.9694 12.1227 20.9995 12 20.9995C11.8773 20.9995 11.7564 20.9694 11.648 20.912L11.645 20.91Z" fill="#F50800"/>
</svg>
