<svg width="283" height="53" viewBox="0 0 283 53" fill="none" xmlns="http://www.w3.org/2000/svg">
<g clip-path="url(#clip0_2_661)">
<path d="M56.5781 31.7776H41.9415C42.0425 33.1547 42.4645 34.2079 43.2093 34.9353C43.9523 35.6646 44.8667 36.0283 45.9505 36.0283C47.5646 36.0283 48.6863 35.3123 49.3175 33.8821H56.2012C55.8478 35.3388 55.2111 36.6497 54.2914 37.8146C53.3698 38.9796 52.2175 39.8946 50.8306 40.5557C49.4438 41.2187 47.8928 41.5483 46.1778 41.5483C44.1092 41.5483 42.2697 41.0861 40.6557 40.1579C39.0416 39.2316 37.781 37.9075 36.8739 36.1856C35.9667 34.4637 35.5123 32.4519 35.5123 30.1466C35.5123 27.8413 35.9595 25.8296 36.8558 24.1077C37.7503 22.3858 39.0055 21.0617 40.6196 20.1354C42.2337 19.2091 44.0858 18.745 46.1796 18.745C48.2733 18.745 50.0371 19.1958 51.6259 20.0956C53.2148 20.9954 54.4555 22.2816 55.3518 23.9485C56.2463 25.6174 56.6954 27.5647 56.6954 29.7886C56.6954 30.4251 56.6575 31.0862 56.5818 31.7757L56.5781 31.7776ZM50.0732 28.0042C50.0732 26.8392 49.6945 25.9129 48.9388 25.2234C48.1832 24.5358 47.2364 24.191 46.102 24.191C44.9677 24.191 44.1038 24.5225 43.3608 25.1836C42.616 25.8466 42.1561 26.7862 41.9794 28.0042H50.0732Z" fill="url(#paint0_linear_2_661)"/>
<path d="M60.5714 15.7088C59.8537 15.0079 59.493 14.1403 59.493 13.106C59.493 12.0718 59.8519 11.1663 60.5714 10.4635C61.2892 9.76265 62.2162 9.41031 63.3523 9.41031C64.4885 9.41031 65.3758 9.76075 66.0953 10.4635C66.8131 11.1663 67.1738 12.0471 67.1738 13.106C67.1738 14.1649 66.8149 15.006 66.0953 15.7088C65.3776 16.4116 64.4632 16.762 63.3523 16.762C62.2414 16.762 61.291 16.4116 60.5714 15.7088ZM66.566 19.0654V41.2342H60.0989V19.0654H66.566Z" fill="url(#paint1_linear_2_661)"/>
<path d="M83.1888 19.7014C84.3106 20.3379 85.1744 21.1714 85.7804 22.2038V19.0649H92.2475V41.1939C92.2475 43.2321 91.8633 45.0809 91.0933 46.7365C90.3232 48.3921 89.151 49.7086 87.5766 50.6899C86.0004 51.6692 84.04 52.1598 81.6956 52.1598C78.5684 52.1598 76.0346 51.3851 74.0941 49.8356C72.1518 48.286 71.0427 46.1872 70.765 43.539H77.1563C77.3583 44.3857 77.838 45.0544 78.5937 45.545C79.3493 46.0356 80.2817 46.28 81.3926 46.28C82.7289 46.28 83.7948 45.8765 84.5883 45.0677C85.3818 44.2588 85.7804 42.9688 85.7804 41.1939V38.0551C85.1492 39.0874 84.2799 39.9285 83.1708 40.5782C82.0617 41.228 80.7632 41.5519 79.2754 41.5519C77.5351 41.5519 75.9589 41.0821 74.5468 40.1407C73.1347 39.2011 72.0184 37.8637 71.1996 36.1286C70.379 34.3934 69.9697 32.3874 69.9697 30.1105C69.9697 27.8335 70.379 25.8332 71.1996 24.1113C72.0184 22.3894 73.1347 21.0653 74.5468 20.139C75.9589 19.2127 77.5351 18.7486 79.2754 18.7486C80.7632 18.7486 82.0671 19.0668 83.1906 19.7014H83.1888ZM84.4368 26.1382C83.5423 25.1588 82.4512 24.6682 81.1654 24.6682C79.8795 24.6682 78.7884 25.1513 77.8939 26.1192C76.9976 27.0872 76.5504 28.417 76.5504 30.1124C76.5504 31.8077 76.9976 33.1508 77.8939 34.1453C78.7884 35.1379 79.8795 35.6342 81.1654 35.6342C82.4512 35.6342 83.5423 35.1436 84.4368 34.1642C85.3313 33.1849 85.7804 31.8475 85.7804 30.1521C85.7804 28.4568 85.3331 27.1194 84.4368 26.1401V26.1382Z" fill="url(#paint2_linear_2_661)"/>
<path d="M115.735 21.3501C117.198 23.0322 117.928 25.3432 117.928 28.2831V41.2343H111.499V29.1962C111.499 27.7129 111.133 26.5612 110.402 25.7391C109.67 24.9189 108.687 24.5078 107.452 24.5078C106.217 24.5078 105.234 24.9189 104.502 25.7391C103.769 26.5612 103.405 27.7129 103.405 29.1962V41.2343H96.938V11.8351H103.405V22.0453C104.06 21.0659 104.956 20.2836 106.09 19.702C107.225 19.1205 108.498 18.8288 109.91 18.8288C112.33 18.8288 114.273 19.6698 115.735 21.352V21.3501Z" fill="url(#paint3_linear_2_661)"/>
<path d="M131.506 19.702C132.64 19.0656 133.938 18.7492 135.401 18.7492C137.141 18.7492 138.716 19.2133 140.13 20.1396C141.542 21.0678 142.658 22.3919 143.477 24.1119C144.295 25.8338 144.707 27.8342 144.707 30.1111C144.707 32.388 144.297 34.3959 143.477 36.1292C142.656 37.8644 141.542 39.2017 140.13 40.1413C138.717 41.0827 137.141 41.5525 135.401 41.5525C133.913 41.5525 132.615 41.24 131.506 40.6186C130.396 39.9973 129.525 39.1676 128.896 38.1352V41.2343H122.429V11.8351H128.896V22.2044C129.502 21.172 130.371 20.3366 131.506 19.702ZM136.782 26.118C135.888 25.1519 134.784 24.6669 133.473 24.6669C132.162 24.6669 131.096 25.1576 130.202 26.1369C129.305 27.1162 128.858 28.4555 128.858 30.149C128.858 31.8425 129.305 33.1817 130.202 34.1611C131.096 35.1404 132.187 35.631 133.473 35.631C134.759 35.631 135.855 35.1347 136.764 34.1421C137.673 33.1495 138.126 31.8046 138.126 30.1092C138.126 28.4138 137.679 27.084 136.782 26.1161V26.118Z" fill="url(#paint4_linear_2_661)"/>
<path d="M152.138 40.1615C150.486 39.2352 149.188 37.9111 148.243 36.1892C147.298 34.4673 146.825 32.4556 146.825 30.1502C146.825 27.8449 147.303 25.8673 148.262 24.1321C149.22 22.397 150.531 21.0672 152.196 20.139C153.86 19.2127 155.725 18.7486 157.793 18.7486C159.862 18.7486 161.727 19.2127 163.391 20.139C165.056 21.0672 166.367 22.397 167.325 24.1321C168.282 25.8673 168.762 27.8733 168.762 30.1502C168.762 32.4272 168.277 34.4351 167.307 36.1684C166.336 37.9035 165.013 39.2352 163.335 40.1615C161.658 41.0897 159.786 41.5519 157.72 41.5519C155.653 41.5519 153.792 41.0897 152.142 40.1615H152.138ZM160.876 34.2419C161.745 33.2891 162.181 31.9252 162.181 30.1502C162.181 28.3753 161.759 27.0114 160.913 26.0586C160.068 25.1058 159.029 24.6284 157.793 24.6284C156.558 24.6284 155.487 25.0982 154.654 26.0397C153.822 26.9792 153.406 28.3507 153.406 30.1521C153.406 31.9536 153.815 33.291 154.636 34.2438C155.454 35.1966 156.482 35.674 157.718 35.674C158.953 35.674 160.006 35.1966 160.876 34.2438V34.2419Z" fill="url(#paint5_linear_2_661)"/>
<path d="M181.508 19.8798C182.642 19.1789 183.903 18.8266 185.29 18.8266V26.0173H183.511C181.897 26.0173 180.687 26.381 179.881 27.1103C179.073 27.8396 178.671 29.1163 178.671 30.9443V41.234H172.204V19.0653H178.671V22.7591C179.427 21.5411 180.373 20.5807 181.508 19.8779V19.8798Z" fill="url(#paint6_linear_2_661)"/>
<path d="M200.325 19.7014C201.447 20.3379 202.311 21.1714 202.917 22.2038V19.0649H209.384V41.1939C209.384 43.2321 209 45.0809 208.23 46.7365C207.46 48.3921 206.287 49.7086 204.713 50.6899C203.137 51.6692 201.176 52.1598 198.832 52.1598C195.705 52.1598 193.171 51.3851 191.23 49.8356C189.288 48.286 188.179 46.1872 187.901 43.539H194.293C194.495 44.3857 194.974 45.0544 195.73 45.545C196.486 46.0356 197.418 46.28 198.529 46.28C199.865 46.28 200.931 45.8765 201.725 45.0677C202.518 44.2588 202.917 42.9688 202.917 41.1939V38.0551C202.286 39.0874 201.416 39.9285 200.307 40.5782C199.198 41.228 197.9 41.5519 196.412 41.5519C194.671 41.5519 193.095 41.0821 191.683 40.1407C190.271 39.2011 189.155 37.8637 188.336 36.1286C187.515 34.3934 187.106 32.3874 187.106 30.1105C187.106 27.8335 187.515 25.8332 188.336 24.1113C189.155 22.3894 190.271 21.0653 191.683 20.139C193.095 19.2127 194.671 18.7486 196.412 18.7486C197.9 18.7486 199.203 19.0668 200.327 19.7014H200.325ZM201.573 26.1382C200.679 25.1588 199.588 24.6682 198.302 24.6682C197.016 24.6682 195.925 25.1513 195.03 26.1192C194.134 27.0872 193.687 28.417 193.687 30.1124C193.687 31.8077 194.134 33.1508 195.03 34.1453C195.925 35.1379 197.016 35.6342 198.302 35.6342C199.588 35.6342 200.679 35.1436 201.573 34.1642C202.468 33.1849 202.917 31.8475 202.917 30.1521C202.917 28.4568 202.469 27.1194 201.573 26.1401V26.1382Z" fill="url(#paint7_linear_2_661)"/>
<path d="M218.101 40.1615C216.449 39.2352 215.151 37.9111 214.206 36.1892C213.261 34.4673 212.788 32.4556 212.788 30.1502C212.788 27.8449 213.266 25.8673 214.226 24.1321C215.183 22.397 216.494 21.0672 218.159 20.139C219.823 19.2127 221.688 18.7486 223.757 18.7486C225.825 18.7486 227.69 19.2127 229.355 20.139C231.019 21.0672 232.33 22.397 233.288 24.1321C234.245 25.8673 234.725 27.8733 234.725 30.1502C234.725 32.4272 234.24 34.4351 233.27 36.1684C232.3 37.9035 230.976 39.2352 229.299 40.1615C227.621 41.0897 225.75 41.5519 223.683 41.5519C221.616 41.5519 219.755 41.0897 218.105 40.1615H218.101ZM226.839 34.2419C227.708 33.2891 228.144 31.9252 228.144 30.1502C228.144 28.3753 227.722 27.0114 226.877 26.0586C226.031 25.1058 224.992 24.6284 223.757 24.6284C222.521 24.6284 221.45 25.0982 220.617 26.0397C219.786 26.9792 219.369 28.3507 219.369 30.1521C219.369 31.9536 219.778 33.291 220.599 34.2438C221.418 35.1966 222.446 35.674 223.681 35.674C224.916 35.674 225.97 35.1966 226.839 34.2438V34.2419Z" fill="url(#paint8_linear_2_661)"/>
<path d="M242.194 40.1615C240.542 39.2352 239.243 37.9111 238.298 36.1892C237.353 34.4673 236.881 32.4556 236.881 30.1502C236.881 27.8449 237.359 25.8673 238.318 24.1321C239.276 22.397 240.587 21.0672 242.252 20.139C243.916 19.2127 245.781 18.7486 247.849 18.7486C249.918 18.7486 251.783 19.2127 253.447 20.139C255.112 21.0672 256.423 22.397 257.381 24.1321C258.338 25.8673 258.818 27.8733 258.818 30.1502C258.818 32.4272 258.333 34.4351 257.363 36.1684C256.392 37.9035 255.069 39.2352 253.391 40.1615C251.714 41.0897 249.842 41.5519 247.776 41.5519C245.709 41.5519 243.848 41.0897 242.197 40.1615H242.194ZM250.932 34.2419C251.801 33.2891 252.237 31.9252 252.237 30.1502C252.237 28.3753 251.815 27.0114 250.969 26.0586C250.124 25.1058 249.085 24.6284 247.849 24.6284C246.614 24.6284 245.543 25.0982 244.71 26.0397C243.878 26.9792 243.462 28.3507 243.462 30.1521C243.462 31.9536 243.871 33.291 244.692 34.2438C245.51 35.1966 246.538 35.674 247.774 35.674C249.009 35.674 250.062 35.1966 250.932 34.2438V34.2419Z" fill="url(#paint9_linear_2_661)"/>
<path d="M262.2 24.1119C263.019 22.39 264.135 21.0659 265.547 20.1396C266.959 19.2133 268.535 18.7492 270.276 18.7492C271.663 18.7492 272.929 19.0542 274.077 19.6623C275.224 20.2722 276.126 21.0924 276.783 22.1248V11.8351H283.25V41.2343H276.783V38.0557C276.177 39.1146 275.313 39.9632 274.191 40.5978C273.069 41.2343 271.764 41.5506 270.276 41.5506C268.535 41.5506 266.959 41.0808 265.547 40.1394C264.135 39.1998 263.019 37.8625 262.2 36.1273C261.379 34.3922 260.97 32.3861 260.97 30.1092C260.97 27.8323 261.379 25.8319 262.2 24.11V24.1119ZM275.437 26.1388C274.543 25.1595 273.452 24.6688 272.166 24.6688C270.88 24.6688 269.789 25.1519 268.894 26.1199C267.998 27.0878 267.551 28.4176 267.551 30.113C267.551 31.8084 267.998 33.1514 268.894 34.1459C269.789 35.1385 270.88 35.6348 272.166 35.6348C273.452 35.6348 274.543 35.1442 275.437 34.1648C276.332 33.1855 276.781 31.8481 276.781 30.1528C276.781 28.4574 276.334 27.12 275.437 26.1407V26.1388Z" fill="url(#paint10_linear_2_661)"/>
<mask id="mask0_2_661" style="mask-type:luminance" maskUnits="userSpaceOnUse" x="-1" y="8" width="34" height="34">
<path d="M-0.298002 25.235V39.6201C-0.298002 40.806 0.616338 41.7664 1.74529 41.7664H4.15467C5.28362 41.7664 6.19796 40.806 6.19796 39.6201V31.7115C6.19796 29.8002 8.39814 28.8417 9.68579 30.1942L20.1042 41.1375C20.4865 41.539 21.0077 41.7664 21.5488 41.7664H29.987C31.116 41.7664 32.0303 40.806 32.0303 39.6201V25.2236C32.0303 24.6554 31.8157 24.1079 31.4316 23.7063L17.3053 8.86846C16.5082 8.03119 15.2133 8.03119 14.4162 8.86846L12.528 10.8518C11.7309 11.689 11.7309 13.0491 12.528 13.8864L24.7967 26.7732C25.1791 27.1748 25.3955 27.7222 25.3955 28.2905V36.3336L8.33863 18.4175C7.54692 17.5859 6.26468 17.5783 5.46396 18.4024L0.313361 23.7025C-0.0797872 24.106 -0.299805 24.6591 -0.299805 25.235H-0.298002Z" fill="white"/>
</mask>
<g mask="url(#mask0_2_661)">
<path d="M13.6409 65.0952L8.21079 32.9626L18.8023 63.6423L13.6409 65.0952ZM5.5381 65.4759H10.8817L8.20898 32.9626L5.5381 65.4759ZM2.77885 65.0952L8.20898 32.9626L-2.38257 63.6423L2.77885 65.0952ZM-4.95427 62.5247L8.20898 32.9645L-9.58187 59.7192L-4.95427 62.5265V62.5247ZM-11.7893 57.9386L8.20898 32.9626L-15.5693 53.9682L-11.7911 57.9367L-11.7893 57.9386ZM-17.2627 51.6515L8.20898 32.9645L-19.9336 46.7908L-17.2627 51.6515ZM-20.9994 44.0896L8.20898 32.9645L-22.3826 38.6681L-20.9994 44.0896ZM-22.7451 35.7699L8.20898 32.9626L-22.7451 30.1572V35.7699ZM-22.3826 27.2589L8.20898 32.9626L-20.9994 21.8375L-22.3826 27.2589ZM-19.9354 19.1363L8.20718 32.9626L-17.2645 14.2755L-19.9372 19.1363H-19.9354ZM-15.5693 11.9569L8.20898 32.9626L-11.7893 7.98655L-15.5675 11.9551L-15.5693 11.9569ZM-9.58367 6.20782L8.20718 32.9626L-4.95607 3.40239L-9.58367 6.20782ZM-2.38438 2.28288L8.20718 32.9626L2.77704 0.82997L-2.38438 2.28288ZM5.53629 0.449219L8.20898 32.9626L10.8799 0.449219H5.53629ZM13.6391 0.82997L8.20898 32.9626L18.8005 2.28288L13.6391 0.82997ZM21.3722 3.4005L8.20898 32.9607L25.9998 6.20592L21.3722 3.39861V3.4005ZM28.2072 7.98655L8.20898 32.9626L31.9872 11.9569L28.209 7.98844L28.2072 7.98655ZM33.6806 14.2736L8.20898 32.9607L36.3515 19.1344L33.6806 14.2736ZM37.4174 21.8356L8.20898 32.9607L38.8006 27.257L37.4174 21.8356ZM39.1631 30.1553L8.20898 32.9626L39.1631 35.768V30.1553ZM38.8006 38.6662L8.20898 32.9626L37.4174 44.0877L38.8006 38.6662ZM36.3533 46.7889L8.21079 32.9626L33.6824 51.6496L36.3551 46.7889H36.3533ZM31.9872 53.9682L8.20898 32.9626L28.2072 57.9386L31.9854 53.9701L31.9872 53.9682ZM26.0016 59.7173L8.21079 32.9626L21.374 62.5228L26.0016 59.7173Z" fill="url(#paint11_linear_2_661)"/>
</g>
</g>
<defs>
<linearGradient id="paint0_linear_2_661" x1="-0.917053" y1="34.8482" x2="273.014" y2="10.0674" gradientUnits="userSpaceOnUse">
<stop stop-color="#FCD416"/>
<stop offset="1" stop-color="#EF5126"/>
</linearGradient>
<linearGradient id="paint1_linear_2_661" x1="-1.18162" y1="31.9105" x2="272.749" y2="7.12977" gradientUnits="userSpaceOnUse">
<stop stop-color="#FCD416"/>
<stop offset="1" stop-color="#EF5126"/>
</linearGradient>
<linearGradient id="paint2_linear_2_661" x1="-0.131532" y1="43.5144" x2="273.799" y2="18.7336" gradientUnits="userSpaceOnUse">
<stop stop-color="#FCD416"/>
<stop offset="1" stop-color="#EF5126"/>
</linearGradient>
<linearGradient id="paint3_linear_2_661" x1="-0.690669" y1="37.3264" x2="273.24" y2="12.5456" gradientUnits="userSpaceOnUse">
<stop stop-color="#FCD416"/>
<stop offset="1" stop-color="#EF5126"/>
</linearGradient>
<linearGradient id="paint4_linear_2_661" x1="-0.484" y1="39.6317" x2="273.447" y2="14.8509" gradientUnits="userSpaceOnUse">
<stop stop-color="#FCD416"/>
<stop offset="1" stop-color="#EF5126"/>
</linearGradient>
<linearGradient id="paint5_linear_2_661" x1="0.0815701" y1="45.886" x2="274.012" y2="21.1052" gradientUnits="userSpaceOnUse">
<stop stop-color="#FCD416"/>
<stop offset="1" stop-color="#EF5126"/>
</linearGradient>
<linearGradient id="paint6_linear_2_661" x1="0.241125" y1="47.6366" x2="274.172" y2="22.8541" gradientUnits="userSpaceOnUse">
<stop stop-color="#FCD416"/>
<stop offset="1" stop-color="#EF5126"/>
</linearGradient>
<linearGradient id="paint7_linear_2_661" x1="0.91791" y1="55.1016" x2="274.849" y2="30.3191" gradientUnits="userSpaceOnUse">
<stop stop-color="#FCD416"/>
<stop offset="1" stop-color="#EF5126"/>
</linearGradient>
<linearGradient id="paint8_linear_2_661" x1="0.674049" y1="52.4118" x2="274.605" y2="27.6293" gradientUnits="userSpaceOnUse">
<stop stop-color="#FCD416"/>
<stop offset="1" stop-color="#EF5126"/>
</linearGradient>
<linearGradient id="paint9_linear_2_661" x1="0.889322" y1="54.7948" x2="274.82" y2="30.014" gradientUnits="userSpaceOnUse">
<stop stop-color="#FCD416"/>
<stop offset="1" stop-color="#EF5126"/>
</linearGradient>
<linearGradient id="paint10_linear_2_661" x1="0.850278" y1="54.3976" x2="274.781" y2="29.6168" gradientUnits="userSpaceOnUse">
<stop stop-color="#FCD416"/>
<stop offset="1" stop-color="#EF5126"/>
</linearGradient>
<linearGradient id="paint11_linear_2_661" x1="-1.00475" y1="33.8832" x2="272.926" y2="9.10066" gradientUnits="userSpaceOnUse">
<stop stop-color="#FCD416"/>
<stop offset="1" stop-color="#EF5126"/>
</linearGradient>
<clipPath id="clip0_2_661">
<rect width="283" height="52" fill="white" transform="translate(0 0.5)"/>
</clipPath>
</defs>
</svg>
