<svg width="24" height="25" viewBox="0 0 24 25" fill="none" xmlns="http://www.w3.org/2000/svg">
<path d="M13 12.9014C13 12.3491 12.5523 11.9014 12 11.9014C11.4477 11.9014 11 12.3491 11 12.9014C11 13.4537 11.4477 13.9014 12 13.9014C12.5523 13.9014 13 13.4537 13 12.9014Z" stroke="black" stroke-width="1.5" stroke-linecap="round" stroke-linejoin="round"/>
<path d="M13 5.90137C13 5.34908 12.5523 4.90137 12 4.90137C11.4477 4.90137 11 5.34908 11 5.90137C11 6.45365 11.4477 6.90137 12 6.90137C12.5523 6.90137 13 6.45365 13 5.90137Z" stroke="black" stroke-width="1.5" stroke-linecap="round" stroke-linejoin="round"/>
<path d="M13 19.9014C13 19.3491 12.5523 18.9014 12 18.9014C11.4477 18.9014 11 19.3491 11 19.9014C11 20.4537 11.4477 20.9014 12 20.9014C12.5523 20.9014 13 20.4537 13 19.9014Z" stroke="black" stroke-width="1.5" stroke-linecap="round" stroke-linejoin="round"/>
</svg>
