<svg width="24" height="25" viewBox="0 0 24 25" fill="none" xmlns="http://www.w3.org/2000/svg">
<path fill-rule="evenodd" clip-rule="evenodd" d="M3 7.25C3 7.05109 3.07902 6.86032 3.21967 6.71967C3.36032 6.57902 3.55109 6.5 3.75 6.5H20.25C20.4489 6.5 20.6397 6.57902 20.7803 6.71967C20.921 6.86032 21 7.05109 21 7.25C21 7.44891 20.921 7.63968 20.7803 7.78033C20.6397 7.92098 20.4489 8 20.25 8H3.75C3.55109 8 3.36032 7.92098 3.21967 7.78033C3.07902 7.63968 3 7.44891 3 7.25ZM3 12.5C3 12.3011 3.07902 12.1103 3.21967 11.9697C3.36032 11.829 3.55109 11.75 3.75 11.75H20.25C20.4489 11.75 20.6397 11.829 20.7803 11.9697C20.921 12.1103 21 12.3011 21 12.5C21 12.6989 20.921 12.8897 20.7803 13.0303C20.6397 13.171 20.4489 13.25 20.25 13.25H3.75C3.55109 13.25 3.36032 13.171 3.21967 13.0303C3.07902 12.8897 3 12.6989 3 12.5ZM3 17.75C3 17.5511 3.07902 17.3603 3.21967 17.2197C3.36032 17.079 3.55109 17 3.75 17H20.25C20.4489 17 20.6397 17.079 20.7803 17.2197C20.921 17.3603 21 17.5511 21 17.75C21 17.9489 20.921 18.1397 20.7803 18.2803C20.6397 18.421 20.4489 18.5 20.25 18.5H3.75C3.55109 18.5 3.36032 18.421 3.21967 18.2803C3.07902 18.1397 3 17.9489 3 17.75Z" fill="black"/>
</svg>
