<svg width="12" height="15" viewBox="0 0 12 15" fill="none" xmlns="http://www.w3.org/2000/svg">
<path d="M9 6.5V4C9 3.20435 8.68393 2.44129 8.12132 1.87868C7.55871 1.31607 6.79565 1 6 1C5.20435 1 4.44129 1.31607 3.87868 1.87868C3.31607 2.44129 3 3.20435 3 4V6.5M2.5 14H9.5C9.89782 14 10.2794 13.842 10.5607 13.5607C10.842 13.2794 11 12.8978 11 12.5V8C11 7.60218 10.842 7.22064 10.5607 6.93934C10.2794 6.65804 9.89782 6.5 9.5 6.5H2.5C2.10218 6.5 1.72064 6.65804 1.43934 6.93934C1.15804 7.22064 1 7.60218 1 8V12.5C1 12.8978 1.15804 13.2794 1.43934 13.5607C1.72064 13.842 2.10218 14 2.5 14Z" stroke="black" stroke-opacity="0.5" stroke-linecap="round" stroke-linejoin="round"/>
</svg>
