<svg width="12" height="14" viewBox="0 0 12 14" fill="none" xmlns="http://www.w3.org/2000/svg">
<path fill-rule="evenodd" clip-rule="evenodd" d="M2.21333 0.717998C4.72933 0.42591 7.27067 0.42591 9.78667 0.717998C10.7847 0.833999 11.5 1.69133 11.5 2.67133V13C11.4999 13.0851 11.478 13.1688 11.4365 13.2432C11.395 13.3175 11.3352 13.38 11.2627 13.4247C11.1903 13.4695 11.1076 13.495 11.0225 13.4988C10.9375 13.5026 10.8528 13.4847 10.7767 13.4467L6 11.0593L1.22333 13.448C1.14705 13.4861 1.0623 13.504 0.977135 13.5001C0.891967 13.4962 0.80921 13.4706 0.736728 13.4257C0.664247 13.3808 0.604448 13.3182 0.563015 13.2436C0.521582 13.1691 0.49989 13.0853 0.5 13V2.67133C0.5 1.69133 1.21533 0.833999 2.21333 0.717998Z" fill="black"/>
</svg>
