<svg width="18" height="19" viewBox="0 0 18 19" fill="none" xmlns="http://www.w3.org/2000/svg">
<g clip-path="url(#clip0_2_586)">
<path d="M10.902 16.3631C10.9305 16.4341 10.98 16.4947 11.044 16.5368C11.1079 16.5788 11.1831 16.6003 11.2596 16.5984C11.3361 16.5964 11.4102 16.5711 11.4719 16.5258C11.5336 16.4806 11.5799 16.4175 11.6047 16.3451L16.4797 2.09513C16.5038 2.02868 16.5083 1.95676 16.493 1.8878C16.4776 1.81884 16.4429 1.75568 16.3929 1.70572C16.343 1.65575 16.2798 1.62105 16.2108 1.60568C16.1419 1.5903 16.07 1.59488 16.0035 1.61888L1.7535 6.49388C1.68112 6.5187 1.61807 6.56507 1.5728 6.62676C1.52754 6.68845 1.50223 6.76251 1.50027 6.839C1.49831 6.91549 1.51979 6.99075 1.56184 7.05468C1.60389 7.1186 1.66449 7.16814 1.7355 7.19663L7.683 9.58163C7.87101 9.65691 8.04184 9.76948 8.18517 9.91256C8.32851 10.0556 8.44139 10.2263 8.517 10.4141L10.902 16.3631Z" stroke="black" stroke-width="1.5" stroke-linecap="round" stroke-linejoin="round"/>
<path d="M16.3905 1.70888L8.1855 9.91313" stroke="black" stroke-width="1.5" stroke-linecap="round" stroke-linejoin="round"/>
</g>
<defs>
<clipPath id="clip0_2_586">
<rect width="18" height="18" fill="white" transform="translate(0 0.0986328)"/>
</clipPath>
</defs>
</svg>
