<svg width="38" height="38" viewBox="0 0 38 38" fill="none" xmlns="http://www.w3.org/2000/svg">
<path d="M25.1478 25.376L19.0487 19.2769L12.9497 25.376" stroke="black" stroke-width="1.52475" stroke-linecap="round" stroke-linejoin="round"/>
<path d="M19.0474 19.2769V32.9997" stroke="black" stroke-width="1.52475" stroke-linecap="round" stroke-linejoin="round"/>
<path d="M31.8412 29.0204C33.3283 28.2096 34.5031 26.9267 35.1802 25.3741C35.8572 23.8215 35.998 22.0877 35.5802 20.4462C35.1624 18.8048 34.2099 17.3492 32.8729 16.3092C31.536 15.2692 29.8908 14.7041 28.197 14.703H26.2758C25.8143 12.9178 24.9541 11.2606 23.7599 9.85577C22.5657 8.45095 21.0686 7.33513 19.381 6.59221C17.6935 5.84928 15.8596 5.49858 14.017 5.56647C12.1744 5.63436 10.3712 6.11907 8.74297 6.98416C7.1147 7.84925 5.70373 9.07221 4.61614 10.5611C3.52855 12.05 2.79264 13.7661 2.46374 15.5803C2.13484 17.3945 2.2215 19.2597 2.7172 21.0357C3.21291 22.8116 4.10477 24.452 5.32573 25.8337" stroke="black" stroke-width="1.52475" stroke-linecap="round" stroke-linejoin="round"/>
<path d="M25.1478 25.376L19.0487 19.2769L12.9497 25.376" stroke="black" stroke-width="1.52475" stroke-linecap="round" stroke-linejoin="round"/>
</svg>
